<?xml version="1.0" encoding="UTF-8"?>
<svg viewBox="0 0 12 12" version="1.1" xmlns="http://www.w3.org/2000/svg" xmlns:xlink="http://www.w3.org/1999/xlink">
    <!-- Generator: Sketch 48.1 (47250) - http://www.bohemiancoding.com/sketch -->
    <title>Shape</title>
    <desc>Created with Sketch.</desc>
    <defs></defs>
    <g id="Page-1" stroke="none" stroke-width="1" fill="currentColor" fill-rule="evenodd" >
        <path d="M5.987507,0.000259667783 C5.93414125,0.00279074453 5.88546464,0.0234390022 5.83348432,0.0543714244 L0.105257976,4.58366666 C0.0162972893,4.65111053 -0.0230010076,4.77797076 0.0136729624,4.88339677 C0.0503469323,4.98886274 0.16016902,5.06474176 0.271776184,5.06241051 L1.47070729,5.06241051 L1.47070729,10.3909878 L0.271776184,10.3909878 C0.127225058,10.3909878 0.00862413031,10.5374039 0.00534705199,10.6574169 L0.00534705199,11.7231335 C0.00536037345,11.8626358 0.132287212,11.9895493 0.271776184,11.9895626 L11.7282295,11.9895626 C11.8677318,11.9895493 11.9946453,11.8626358 11.9946587,11.7231335 L11.9946587,10.6574169 C11.9946453,10.5179146 11.8677318,10.3910011 11.7282295,10.3909878 L10.7957269,10.3909878 L10.7957269,5.06241051 L11.7282295,5.06241051 C11.83985,5.06467515 11.9496588,4.98886274 11.9863327,4.88339677 C12.0230067,4.77797076 11.9836685,4.65111053 11.8947477,4.58366666 L6.16652074,0.0543714244 C6.09894099,0.0133679811 6.04088608,-0.00225808751 5.987507,0.000259667783 Z M6.00002917,0.608051124 L10.9622717,4.52955491 L1.03778659,4.52955491 L6.00002917,0.608051124 Z M6.00002917,1.99847816 C5.48817884,1.99847816 5.06752721,2.41912979 5.06752721,2.93098012 C5.06752721,3.44283044 5.48817884,3.86348208 6.00002917,3.86348208 C6.5118795,3.86348208 6.93253113,3.44283044 6.93253113,2.93098012 C6.93253113,2.41912979 6.5118795,1.99847816 6.00002917,1.99847816 Z M6.00002917,2.53133642 C6.22390957,2.53133642 6.39967287,2.70711304 6.39967287,2.93098012 C6.39967287,3.15484719 6.22390957,3.33062381 6.00002917,3.33062381 C5.77616209,3.33062381 5.60038547,3.15484719 5.60038547,2.93098012 C5.60038547,2.70711304 5.77616209,2.53133642 6.00002917,2.53133642 Z M2.0035922,5.06241051 L3.53645046,5.06241051 L3.53645046,10.3909878 L2.0035922,10.3909878 L2.0035922,5.06241051 Z M4.06930872,5.06241051 L8.19717875,5.06241051 L8.19717875,10.3909878 L4.06930872,10.3909878 L4.06930872,5.06241051 Z M8.73003701,5.06241051 L10.2628953,5.06241051 L10.2628953,10.3909878 L8.73003701,10.3909878 L8.73003701,5.06241051 Z M0.538231958,10.9238461 L11.461827,10.9238461 L11.461827,11.4567043 L0.538231958,11.4567043 L0.538231958,10.9238461 Z" id="Shape" fill-rule="nonzero"></path>
    </g>
</svg>