<?xml version="1.0" encoding="UTF-8"?>
<svg viewBox="0 0 48 48" version="1.1" xmlns="http://www.w3.org/2000/svg" xmlns:xlink="http://www.w3.org/1999/xlink">
    <!-- Generator: Sketch 48.1 (47250) - http://www.bohemiancoding.com/sketch -->
    <title>icon_bill</title>
    <desc>Created with Sketch.</desc>
    <defs></defs>
    <g id="Register_00" stroke="none" stroke-width="1" fill="none" fill-rule="evenodd" transform="translate(-59.000000, -396.000000)">
        <path d="M66.013824,399.237538 L66.013824,441.385853 C66.0534926,441.86427 66.2711042,442.24289 66.5977752,442.374864 C66.9477456,442.547769 67.4007423,442.505466 67.7156248,442.276015 L72.8877646,438.567198 L77.0421608,442.210081 C77.4306306,442.55816 78.0885428,442.55816 78.4770125,442.210081 L82.5646714,438.616622 L86.6523303,442.210081 C87.0408001,442.55816 87.6987123,442.55816 88.087182,442.210081 L92.2415782,438.567198 L97.413718,442.276015 C97.7397537,442.515224 98.2089542,442.551461 98.5649362,442.358406 C98.9209129,442.165299 99.1447872,441.753132 99.1155189,441.352938 C99.1155829,426.313642 99.1155189,414.251938 99.1155189,399.204571 C99.1743011,398.793828 98.9602079,398.359982 98.5983049,398.149626 C98.2364019,397.939323 97.748531,397.965221 97.413718,398.21556 L92.2415782,401.924325 L88.087182,398.281494 C87.6987123,397.933415 87.0408001,397.933415 86.6523303,398.281494 L82.5646714,401.874901 L78.4770125,398.281494 C78.0885428,397.933415 77.4306306,397.933415 77.0421608,398.281494 L72.8877646,401.924325 L67.7156248,398.21556 C67.517036,398.06618 67.2641604,397.988852 67.0148833,398.001301 C66.4114981,398.029784 65.9094041,398.649723 66.013824,399.237538 Z M77.7595867,400.473775 L81.8472456,404.067235 C82.2357153,404.415261 82.8936275,404.415261 83.2820973,404.067235 L87.3697562,400.473775 L91.4574151,404.067235 C91.8196223,404.390944 92.4161096,404.420061 92.8088451,404.133169 L96.9799257,401.133116 L96.9799257,439.358406 L92.8088451,436.358406 C92.4161096,436.071461 91.8196223,436.100578 91.4574151,436.424341 L87.3697562,440.017747 L83.2820973,436.424341 C82.8936275,436.076261 82.2357153,436.076261 81.8472456,436.424341 L77.7595867,440.017747 L73.6719278,436.424341 C73.4559926,436.234134 73.159332,436.136446 72.8710803,436.160604 C72.6737568,436.174319 72.4807312,436.243787 72.3204977,436.358406 L68.1494172,439.358406 L68.1494172,401.133116 L72.3204977,404.133169 C72.7132333,404.420061 73.3097205,404.390944 73.6719278,404.067235 L77.7595867,400.473775 Z M82.3642813,411 C81.7750444,411 81.2964846,411.472352 81.2964846,412.054945 L81.2964846,412.763763 C79.4528697,413.188062 78.0263575,414.795692 78.0263575,416.868132 C78.0263575,418.190716 78.6823904,419.224447 79.4778935,419.802187 C80.2733967,420.379981 81.1085898,420.639972 81.8136986,420.972491 C83.0740724,421.491893 84.3738424,422.052649 84.3830842,423.197792 C84.3830842,424.608464 83.5623757,425.307682 82.2641753,425.307682 C81.2568854,425.307682 80.4118685,424.537572 80.0284762,423.774741 C79.8155789,423.229124 79.1030596,422.952517 78.5769402,423.214249 C78.0508101,423.476033 77.8322054,424.217502 78.1431478,424.714275 C78.7057591,425.833836 79.7931979,426.953765 81.2964846,427.302161 L81.2964846,427.87911 C81.2964846,428.461756 81.7750444,428.934055 82.3642813,428.934055 C82.9535235,428.934055 83.4320779,428.461756 83.4320779,427.87911 L83.4320779,427.252737 C85.1752932,426.759497 86.5019931,425.192587 86.5019931,423.197792 C86.5019931,421.875207 85.8626552,420.824956 85.0671414,420.247216 C84.2716276,419.669475 83.4197768,419.409431 82.714652,419.076913 C81.460888,418.558523 80.1543961,417.998664 80.1452664,416.868132 C80.1452664,415.457407 80.9659429,414.758242 82.2641753,414.758242 C83.2714652,414.758242 84.1164821,415.511842 84.4998745,416.274725 C84.7127718,416.82029 85.4419754,417.096897 85.9680948,416.835165 C86.4942196,416.573433 86.6961399,415.831912 86.3852029,415.335191 C85.8486244,414.267429 84.8293591,413.208211 83.4320779,412.813187 L83.4320779,412.054945 C83.4320779,411.472352 82.9535235,411 82.3642813,411 Z" id="icon_bill" fill="currentColor" fill-rule="nonzero"></path>
    </g>
</svg>
