<?xml version="1.0" encoding="UTF-8"?>
<svg viewBox="0 0 28 25" version="1.1" xmlns="http://www.w3.org/2000/svg" xmlns:xlink="http://www.w3.org/1999/xlink">
    <!-- Generator: Sketch 48.1 (47250) - http://www.bohemiancoding.com/sketch -->
    <title>icon_business</title>
    <desc>Created with Sketch.</desc>
    <defs></defs>
    <g id="Page-1" stroke="currentColor" stroke-width="1" fill="currentColor" fill-rule="evenodd">
        <g id="icon_business" fill="currentColor" fill-rule="nonzero">
            <path d="M3.47152761,0.0020265263 C3.31726233,0.0314186621 3.18903051,0.140312905 3.13284199,0.289637788 L0.112895207,8.45779761 C0.0909495168,8.48429979 0.0720134722,8.51324461 0.0564476035,8.54408098 C0.0265527051,8.62596452 0.00736205842,8.68463252 0,8.74540887 L3.0081326e-16,9.20558688 C3.0081326e-16,10.2174263 0.813431281,11.046299 1.80632331,11.046299 C2.13438875,11.046299 2.44347306,10.9451316 2.70948497,10.7874488 L2.70948497,23.9312835 L0.451580828,23.9312835 C0.202189942,23.9313088 2.49104168e-05,24.1373227 3.0081326e-16,24.3914615 L0,24.5313031 L0,24.3914615 C0.00621411453,24.5960068 0.144221504,24.7718002 0.338685621,24.8228784 C0.395070948,24.8543415 0.423419303,24.8543415 0.451580828,24.8516395 L15.7771052,24.8516395 C15.8429584,24.8519391 15.8523709,24.8519391 15.8617766,24.8516395 L25.2885264,24.8516395 L27.5182067,24.8516395 C27.5839141,24.8564514 27.6218421,24.8564514 27.6593257,24.8516395 C27.8639722,24.7978912 28.0046779,24.6067118 27.9980113,24.3914615 C27.9979864,24.1373227 27.7958214,23.9313089 27.5464305,23.9312835 L25.2885264,23.9312835 L25.2885264,10.7874488 C25.5592617,10.95295 25.854927,11.046299 26.191688,11.046299 C26.3157996,11.046299 26.4413327,11.0421785 26.5585974,11.0175378 C27.1449228,10.8943344 27.6274595,10.4746069 27.8568923,9.92461504 C27.9027793,9.81461685 27.9456063,9.69898239 27.9697875,9.57948152 C27.9939688,9.45998066 27.9980113,9.33206681 27.9980113,9.20558688 L27.9980113,8.71664774 C28.0006629,8.63042782 28.0006629,8.60153977 27.9980113,8.57284211 C27.9700816,8.50573516 27.9700816,8.49614343 27.9697875,8.48655873 C27.9542217,8.45572236 27.9352856,8.42677754 27.9133399,8.40027535 C27.9073483,8.39360454 26.9006994,5.69005869 24.8933931,0.289637788 C24.8085074,0.141113361 24.6524761,0.0161833443 24.4700361,0.0020265263 L3.55619902,0.0020265263 C3.5280375,-0.000675508768 3.49968914,-0.000675508768 3.47152761,0.0020265263 Z M3.86666084,0.922382562 L24.1595743,0.922382562 L27.0948497,8.83169225 L27.0948497,9.20558688 C27.0948497,9.72347123 26.699851,10.1259429 26.191688,10.1259429 C25.8105655,10.1259429 25.5081112,9.91115943 25.3731978,9.57948152 C25.3282266,9.46892191 25.2885264,9.33505797 25.2885264,9.20558688 L25.2885264,9.17682576 C25.2888204,9.16724106 25.2888204,9.15764933 25.2885264,9.14806463 C25.2888204,9.13847993 25.2888204,9.12888821 25.2885264,9.11930351 C25.2897034,9.10014818 25.2897034,9.08093658 25.2885264,9.06178125 C25.279539,9.05177504 25.2701218,9.04217863 25.2603026,9.03302013 C25.2614796,9.0138648 25.2614796,8.9946532 25.2603026,8.97549788 C25.2513152,8.96549166 25.241898,8.95589525 25.2320788,8.94673675 C25.196151,8.88867756 25.1479343,8.83954282 25.0909598,8.80293112 C25.0815541,8.80263148 25.0721416,8.80263148 25.062736,8.80293112 C25.0446012,8.79201447 25.0257393,8.78240397 25.0062883,8.77416999 C24.8646265,8.71983753 24.7056746,8.7414346 24.5829313,8.83169225 C24.573112,8.84085075 24.5636949,8.85044716 24.5547075,8.86045337 C24.5448882,8.86961187 24.5354711,8.87920828 24.5264837,8.8892145 C24.5060385,8.90665307 24.4871489,8.92590234 24.4700361,8.94673675 C24.4593234,8.96521671 24.4498925,8.98443771 24.4418123,9.004259 C24.431993,9.0134175 24.4225759,9.02301391 24.4135885,9.03302013 C24.4124115,9.05217545 24.4124115,9.07138705 24.4135885,9.09054238 C24.4132945,9.10012708 24.4132945,9.10971881 24.4135885,9.11930351 C24.4028758,9.13778346 24.3934449,9.15700447 24.3853647,9.17682576 L24.3853647,9.20558688 C24.3853647,9.59400014 24.1745876,9.93094985 23.8491125,10.0684207 C23.7406211,10.1142443 23.6092436,10.1259429 23.4822031,10.1259429 C23.1010806,10.1259429 22.7986262,9.91115943 22.6637128,9.57948152 C22.6187417,9.46892191 22.5790414,9.33505797 22.5790414,9.20558688 C22.5802184,9.18643156 22.5802184,9.16721996 22.5790414,9.14806463 C22.5793354,9.13847993 22.5793354,9.12888821 22.5790414,9.11930351 C22.5802184,9.10014818 22.5802184,9.08093658 22.5790414,9.06178125 C22.570054,9.05177504 22.5606369,9.04217863 22.5508176,9.03302013 C22.5519946,9.0138648 22.5519946,8.9946532 22.5508176,8.97549788 C22.5418302,8.96549166 22.5324131,8.95589525 22.5225938,8.94673675 C22.4866661,8.88867756 22.4384493,8.83954282 22.3814748,8.80293112 C22.3720691,8.80263148 22.3626566,8.80263148 22.353251,8.80293112 C22.3351163,8.79201447 22.3162544,8.78240397 22.2968034,8.77416999 C22.2426796,8.75363747 22.1851935,8.74387406 22.1274606,8.74540887 C22.0361769,8.74734343 21.9476123,8.77742699 21.8734464,8.83169225 C21.8636271,8.84085075 21.85421,8.85044716 21.8452226,8.86045337 C21.8354033,8.86961187 21.8259862,8.87920828 21.8169988,8.8892145 C21.7965536,8.90665307 21.7776639,8.92590234 21.7605511,8.94673675 C21.7498384,8.96521671 21.7404075,8.98443771 21.7323273,9.004259 C21.7225081,9.0134175 21.7130909,9.02301391 21.7041035,9.03302013 C21.7029265,9.05217545 21.7029265,9.07138705 21.7041035,9.09054238 C21.7038095,9.10012708 21.7038095,9.10971881 21.7041035,9.11930351 C21.6933908,9.13778346 21.6839599,9.15700447 21.6758797,9.17682576 C21.6755857,9.18641046 21.6755857,9.19600218 21.6758797,9.20558688 C21.6758797,9.59400014 21.4651026,9.93094985 21.1396275,10.0684207 C21.0311361,10.1142443 20.8997586,10.1259429 20.7727181,10.1259429 C20.3915956,10.1259429 20.0891412,9.91115943 19.9542278,9.57948152 C19.9092567,9.46892191 19.8695564,9.33505797 19.8695564,9.20558688 C19.8707335,9.18643156 19.8707335,9.16721996 19.8695564,9.14806463 C19.8698505,9.13847993 19.8698505,9.12888821 19.8695564,9.11930351 C19.8707335,9.10014818 19.8707335,9.08093658 19.8695564,9.06178125 C19.860569,9.05177504 19.8511519,9.04217863 19.8413326,9.03302013 C19.8425097,9.0138648 19.8425097,8.9946532 19.8413326,8.97549788 C19.8323452,8.96549166 19.8229281,8.95589525 19.8131088,8.94673675 C19.7771811,8.88867756 19.7289643,8.83954282 19.6719898,8.80293112 C19.6625842,8.80263148 19.6531717,8.80263148 19.643766,8.80293112 C19.6256313,8.79201447 19.6067694,8.78240397 19.5873184,8.77416999 C19.5331946,8.75363747 19.4757086,8.74387406 19.4179756,8.74540887 C19.326692,8.74734343 19.2381274,8.77742699 19.1639614,8.83169225 C19.1541421,8.84085075 19.144725,8.85044716 19.1357376,8.86045337 C19.1259183,8.86961187 19.1165012,8.87920828 19.1075138,8.8892145 C19.0870686,8.90665307 19.068179,8.92590234 19.0510662,8.94673675 C19.0403535,8.96521671 19.0309225,8.98443771 19.0228424,9.004259 C19.0130231,9.0134175 19.003606,9.02301391 18.9946186,9.03302013 C18.9934416,9.05217545 18.9934416,9.07138705 18.9946186,9.09054238 C18.9943245,9.10012708 18.9943245,9.10971881 18.9946186,9.11930351 C18.9839059,9.13778346 18.9744749,9.15700447 18.9663948,9.17682576 C18.9661007,9.18641046 18.9661007,9.19600218 18.9663948,9.20558688 C18.9663948,9.59400014 18.7556176,9.93094985 18.4301425,10.0684207 C18.3216512,10.1142443 18.1902736,10.1259429 18.0632331,10.1259429 C17.6821106,10.1259429 17.3796563,9.91115943 17.2447429,9.57948152 C17.1997717,9.46892191 17.1600715,9.33505797 17.1600715,9.20558688 C17.1612485,9.18643156 17.1612485,9.16721996 17.1600715,9.14806463 C17.1603655,9.13847993 17.1603655,9.12888821 17.1600715,9.11930351 C17.1612485,9.10014818 17.1612485,9.08093658 17.1600715,9.06178125 C17.1510841,9.05177504 17.1416669,9.04217863 17.1318477,9.03302013 C17.1330247,9.0138648 17.1330247,8.9946532 17.1318477,8.97549788 C17.1228603,8.96549166 17.1134431,8.95589525 17.1036239,8.94673675 C17.0676961,8.88867756 17.0194794,8.83954282 16.9625049,8.80293112 C16.9530992,8.80263148 16.9436867,8.80263148 16.934281,8.80293112 C16.9161463,8.79201447 16.8972844,8.78240397 16.8778334,8.77416999 C16.8237097,8.75363747 16.7662236,8.74387406 16.7084906,8.74540887 C16.617207,8.74734343 16.5286424,8.77742699 16.4544764,8.83169225 C16.4446571,8.84085075 16.43524,8.85044716 16.4262526,8.86045337 C16.4164333,8.86961187 16.4070162,8.87920828 16.3980288,8.8892145 C16.3775836,8.90665307 16.358694,8.92590234 16.3415812,8.94673675 C16.3308685,8.96521671 16.3214376,8.98443771 16.3133574,9.004259 C16.3035381,9.0134175 16.294121,9.02301391 16.2851336,9.03302013 C16.2839566,9.05217545 16.2839566,9.07138705 16.2851336,9.09054238 C16.2848396,9.10012708 16.2848396,9.10971881 16.2851336,9.11930351 C16.2744209,9.13778346 16.26499,9.15700447 16.2569098,9.17682576 C16.2566158,9.18641046 16.2566158,9.19600218 16.2569098,9.20558688 C16.2569098,9.59400014 16.0461326,9.93094985 15.7206576,10.0684207 C15.6915711,10.0751353 15.6632088,10.0847694 15.6359862,10.0971818 C15.5492447,10.1244777 15.4506809,10.1259429 15.3537482,10.1259429 C14.9726257,10.1259429 14.6701713,9.91115943 14.5352579,9.57948152 C14.4902868,9.46892191 14.4505865,9.33505797 14.4505865,9.20558688 C14.4517635,9.18643156 14.4517635,9.16721996 14.4505865,9.14806463 C14.4508805,9.13847993 14.4508805,9.12888821 14.4505865,9.11930351 C14.4517635,9.10014818 14.4517635,9.08093658 14.4505865,9.06178125 C14.4415991,9.05177504 14.432182,9.04217863 14.4223627,9.03302013 C14.4235397,9.0138648 14.4235397,8.9946532 14.4223627,8.97549788 C14.4133753,8.96549166 14.4039582,8.95589525 14.3941389,8.94673675 C14.3582112,8.88867756 14.3099944,8.83954282 14.2530199,8.80293112 C14.2436142,8.80263148 14.2342017,8.80263148 14.2247961,8.80293112 C14.2066614,8.79201447 14.1877995,8.78240397 14.1683485,8.77416999 C14.1142247,8.75363747 14.0567386,8.74387406 13.9990057,8.74540887 C13.907722,8.74734343 13.8191574,8.77742699 13.7449915,8.83169225 C13.7351722,8.84085075 13.725755,8.85044716 13.7167676,8.86045337 C13.7069484,8.86961187 13.6975312,8.87920828 13.6885438,8.8892145 C13.6680987,8.90665307 13.649209,8.92590234 13.6320962,8.94673675 C13.6213835,8.96521671 13.6119526,8.98443771 13.6038724,9.004259 C13.5940532,9.0134175 13.584636,9.02301391 13.5756486,9.03302013 C13.5744716,9.05217545 13.5744716,9.07138705 13.5756486,9.09054238 C13.5753546,9.10012708 13.5753546,9.10971881 13.5756486,9.11930351 C13.5649359,9.13778346 13.555505,9.15700447 13.5474248,9.17682576 C13.5471308,9.18641046 13.5471308,9.19600218 13.5474248,9.20558688 C13.5474248,9.59400014 13.3366477,9.93094985 13.0111726,10.0684207 C12.9026812,10.1142443 12.7713037,10.1259429 12.6442632,10.1259429 C12.2631407,10.1259429 11.9606863,9.91115943 11.8257729,9.57948152 C11.7808018,9.46892191 11.7411015,9.33505797 11.7411015,9.20558688 C11.7422786,9.18643156 11.7422786,9.16721996 11.7411015,9.14806463 C11.7413956,9.13847993 11.7413956,9.12888821 11.7411015,9.11930351 C11.7422786,9.10014818 11.7422786,9.08093658 11.7411015,9.06178125 C11.7321141,9.05177504 11.722697,9.04217863 11.7128777,9.03302013 C11.7140547,9.0138648 11.7140547,8.9946532 11.7128777,8.97549788 C11.7038903,8.96549166 11.6944732,8.95589525 11.6846539,8.94673675 C11.6487262,8.88867756 11.6005094,8.83954282 11.5435349,8.80293112 C11.5341293,8.80263148 11.5247167,8.80263148 11.5153111,8.80293112 C11.4971764,8.79201447 11.4783145,8.78240397 11.4588635,8.77416999 C11.4047397,8.75363747 11.3472537,8.74387406 11.2895207,8.74540887 C11.1982371,8.74734343 11.1096725,8.77742699 11.0355065,8.83169225 C11.0256872,8.84085075 11.0162701,8.85044716 11.0072827,8.86045337 C10.9974634,8.86961187 10.9880463,8.87920828 10.9790589,8.8892145 C10.9586137,8.90665307 10.9397241,8.92590234 10.9226113,8.94673675 C10.9118986,8.96521671 10.9024676,8.98443771 10.8943875,9.004259 C10.8845682,9.0134175 10.8751511,9.02301391 10.8661637,9.03302013 C10.8649866,9.05217545 10.8649866,9.07138705 10.8661637,9.09054238 C10.8658696,9.10012708 10.8658696,9.10971881 10.8661637,9.11930351 C10.855451,9.13778346 10.84602,9.15700447 10.8379399,9.17682576 C10.8376458,9.18641046 10.8376458,9.19600218 10.8379399,9.20558688 C10.8379399,9.59400014 10.6271627,9.93094985 10.3016876,10.0684207 C10.1931962,10.1142443 10.0618187,10.1259429 9.93477822,10.1259429 C9.55365574,10.1259429 9.25120135,9.91115943 9.11628796,9.57948152 C9.07131684,9.46892191 9.03161656,9.33505797 9.03161656,9.20558688 C9.03279358,9.18643156 9.03279358,9.16721996 9.03161656,9.14806463 C9.0319106,9.13847993 9.0319106,9.12888821 9.03161656,9.11930351 C9.03279358,9.10014818 9.03279358,9.08093658 9.03161656,9.06178125 C9.02262916,9.05177504 9.01321203,9.04217863 9.00339276,9.03302013 C9.00456978,9.0138648 9.00456978,8.9946532 9.00339276,8.97549788 C8.99440536,8.96549166 8.98498823,8.95589525 8.97516896,8.94673675 C8.93924124,8.88867756 8.89102446,8.83954282 8.83404995,8.80293112 C8.82464431,8.80263148 8.81523178,8.80263148 8.80582615,8.80293112 C8.78769144,8.79201447 8.76882953,8.78240397 8.74937854,8.77416999 C8.69525475,8.75363747 8.6377687,8.74387406 8.58003573,8.74540887 C8.48875208,8.74734343 8.40018749,8.77742699 8.32602152,8.83169225 C8.31620224,8.84085075 8.30678511,8.85044716 8.29779771,8.86045337 C8.28797844,8.86961187 8.27856131,8.87920828 8.26957391,8.8892145 C8.24912873,8.90665307 8.23023909,8.92590234 8.21312631,8.94673675 C8.20241361,8.96521671 8.19298265,8.98443771 8.18490251,9.004259 C8.17508323,9.0134175 8.1656661,9.02301391 8.15667871,9.03302013 C8.15550168,9.05217545 8.15550168,9.07138705 8.15667871,9.09054238 C8.15638466,9.10012708 8.15638466,9.10971881 8.15667871,9.11930351 C8.14596601,9.13778346 8.13653505,9.15700447 8.1284549,9.17682576 C8.12816086,9.18641046 8.12816086,9.19600218 8.1284549,9.20558688 C8.1284549,9.59400014 7.91767729,9.93094985 7.59220267,10.0684207 C7.4837111,10.1142443 7.35233386,10.1259429 7.22529325,10.1259429 C6.84417122,10.1259429 6.54171656,9.91115943 6.406803,9.57948152 C6.36183178,9.46892191 6.32213159,9.33505797 6.32213159,9.20558688 C6.32330862,9.18643156 6.32330862,9.16721996 6.32213159,9.14806463 C6.32242563,9.13847993 6.32242563,9.12888821 6.32213159,9.11930351 C6.32330862,9.10014818 6.32330862,9.08093658 6.32213159,9.06178125 C6.31314419,9.05177504 6.30372706,9.04217863 6.29390779,9.03302013 C6.29508481,9.0138648 6.29508481,8.9946532 6.29390779,8.97549788 C6.28492039,8.96549166 6.27550326,8.95589525 6.26568399,8.94673675 C6.22975627,8.88867756 6.18153949,8.83954282 6.12456498,8.80293112 C6.11515934,8.80263148 6.10574681,8.80263148 6.09634118,8.80293112 C6.07820647,8.79201447 6.05934456,8.78240397 6.03989357,8.77416999 C5.98576978,8.75363747 5.92828373,8.74387406 5.87055076,8.74540887 C5.77926711,8.74734343 5.69070252,8.77742699 5.61653655,8.83169225 C5.60671727,8.84085075 5.59730015,8.85044716 5.58831275,8.86045337 C5.57849347,8.86961187 5.56907634,8.87920828 5.56008894,8.8892145 C5.53964377,8.90665307 5.52075412,8.92590234 5.50364134,8.94673675 C5.49292864,8.96521671 5.48349769,8.98443771 5.47541754,9.004259 C5.46559826,9.0134175 5.45618114,9.02301391 5.44719374,9.03302013 C5.44601671,9.05217545 5.44601671,9.07138705 5.44719374,9.09054238 C5.4468997,9.10012708 5.4468997,9.10971881 5.44719374,9.11930351 C5.43648104,9.13778346 5.42705008,9.15700447 5.41896994,9.17682576 C5.4186759,9.18641046 5.4186759,9.19600218 5.41896994,9.20558688 C5.41896994,9.59400014 5.20819224,9.93094985 4.8827177,10.0684207 C4.77422622,10.1142443 4.64284889,10.1259429 4.51580828,10.1259429 C4.13468625,10.1259429 3.83223159,9.91115943 3.69731803,9.57948152 C3.65234681,9.46892191 3.61264662,9.33505797 3.61264662,9.20558688 L3.61264662,9.17682576 C3.61294066,9.16724106 3.61294066,9.15764933 3.61264662,9.14806463 C3.61294066,9.13847993 3.61294066,9.12888821 3.61264662,9.11930351 C3.60265608,9.02307094 3.5631526,8.93249596 3.49975142,8.86045337 C3.49034578,8.86015373 3.48093325,8.86015373 3.47152761,8.86045337 C3.47182166,8.85086867 3.47182166,8.84127695 3.47152761,8.83169225 C3.46212198,8.83139261 3.45270945,8.83139261 3.44330381,8.83169225 C3.4018469,8.7943664 3.35401322,8.76511979 3.3021848,8.74540887 C3.28338734,8.74420943 3.26453466,8.74420943 3.2457372,8.74540887 C3.21851452,8.73299645 3.19015226,8.72336237 3.1610658,8.71664774 C3.01387326,8.71881081 2.87695191,8.7939413 2.79415637,8.91797562 C2.79386233,8.92756032 2.79386233,8.93715205 2.79415637,8.94673675 C2.7843371,8.95589525 2.77491997,8.96549166 2.76593257,8.97549788 C2.75521987,8.99397783 2.74578892,9.01319883 2.73770877,9.03302013 C2.73741473,9.04260483 2.73741473,9.05219655 2.73770877,9.06178125 C2.73741473,9.07136596 2.73741473,9.08095768 2.73770877,9.09054238 C2.72699607,9.10902234 2.71756512,9.12824334 2.70948497,9.14806463 C2.70919093,9.15764933 2.70919093,9.16724106 2.70948497,9.17682576 C2.70919093,9.18641046 2.70919093,9.19600218 2.70948497,9.20558688 C2.70948497,9.59400014 2.49870727,9.93094985 2.17323273,10.0684207 C2.06474125,10.1142443 1.93336393,10.1259429 1.80632331,10.1259429 C1.42520129,10.1259429 1.12274663,9.91115943 0.987833061,9.57948152 C0.942861843,9.46892191 0.903161656,9.33505797 0.903161656,9.20558688 L0.903161656,8.83169225 L3.86666084,0.922382562 Z M5.87055076,10.4135542 C5.89737241,10.4447975 5.92642748,10.4704948 5.95522217,10.4998376 C6.28269152,10.8335356 6.72884723,11.046299 7.22529325,11.046299 C7.76088193,11.046299 8.24839296,10.7945392 8.58003573,10.4135542 C8.60685692,10.4447975 8.63591254,10.4704948 8.66470714,10.4998376 C8.99217639,10.8335356 9.43833283,11.046299 9.93477822,11.046299 C10.4703666,11.046299 10.9578779,10.7945392 11.2895207,10.4135542 C11.3163419,10.4447975 11.3453975,10.4704948 11.3741921,10.4998376 C11.7016614,10.8335356 12.1478178,11.046299 12.6442632,11.046299 C13.1798516,11.046299 13.6673629,10.7945392 13.9990057,10.4135542 C14.0258269,10.4447975 14.0548825,10.4704948 14.0836771,10.4998376 C14.1932198,10.6114639 14.6405295,11.046299 15.3672002,11.046299 C16.1853673,11.046299 16.5803698,10.5742527 16.7258989,10.4135542 C16.7258989,10.4135542 17.1605711,11.046299 18.0612852,11.046299 C18.9627775,11.046299 19.37567,10.4135542 19.4259373,10.4135542 C19.4439668,10.4135542 19.8141632,11.046299 20.7496796,11.0654937 C21.5094588,11.0810826 22.1320648,10.4331509 22.1320648,10.4331509 C22.1320648,10.445568 22.6349967,10.9502178 23.2428736,11.046299 C23.6862067,11.1163722 24.2733861,10.8734646 24.3255881,10.8268396 C24.3777901,10.7802145 24.3755065,10.7875998 24.3849644,10.7874488 L24.4076187,23.9312835 L3.61264662,23.9312835 L3.61264662,10.7874488 C3.88338234,10.95295 4.17904712,11.046299 4.51580828,11.046299 C5.05139705,11.046299 5.53890782,10.7945392 5.87055076,10.4135542 Z"></path>
            <path d="M14.5,14.5454545 L14.5,23.9545455 L20.5,23.9545455 L20.5,14.5454545 L14.5,14.5454545 Z M21.5,13.5 L21.5,24 L13.5,24 L13.5,13.5 L21.5,13.5 Z" id="Rectangle"></path>
            <polygon id="Line-4" points="15.5 18 16.5 18 16.5 20 15.5 20"></polygon>
        </g>
    </g>
</svg>
