<?xml version="1.0" encoding="UTF-8"?>
<svg viewBox="0 0 48 48" version="1.1" xmlns="http://www.w3.org/2000/svg" xmlns:xlink="http://www.w3.org/1999/xlink">
    <!-- Generator: Sketch 48.1 (47250) - http://www.bohemiancoding.com/sketch -->
    <title>icon_cc</title>
    <desc>Created with Sketch.</desc>
    <defs></defs>
    <g id="Register_00" stroke="none" stroke-width="1" fill="currentColor" fill-rule="evenodd" transform="translate(-59.000000, -470.000000)">
        <path d="M63.5777777,478 C61.6133733,478 60,479.698805 60,481.767241 L60,505.447044 C60,507.515475 61.6133733,509.214286 63.5777777,509.214286 L102.422222,509.214286 C104.386627,509.214286 106,507.515475 106,505.447044 L106,481.767241 C106,479.698805 104.386627,478 102.422222,478 L63.5777777,478 Z M63.5777777,480.152709 L102.422222,480.152709 C103.289373,480.152709 103.955556,480.85417 103.955556,481.767241 L103.955556,483.381773 L62.0444444,483.381773 L62.0444444,481.767241 C62.0444444,480.85417 62.7106266,480.152709 63.5777777,480.152709 Z M62.0444444,485.534483 L103.955556,485.534483 L103.955556,488.763525 L62.0444444,488.763525 L62.0444444,485.534483 Z M62.0444444,490.916235 L103.955556,490.916235 L103.955556,505.447044 C103.955556,506.360116 103.289373,507.061576 102.422222,507.061576 L63.5777777,507.061576 C62.7106266,507.061576 62.0444444,506.360116 62.0444444,505.447044 L62.0444444,490.916235 Z M89.7452984,495.204884 C87.2742226,495.204884 85.2469125,497.162019 85.2469125,499.527094 C85.2469125,501.892168 87.2742226,503.832512 89.7452984,503.832512 C90.8041622,503.832512 91.7836295,503.468974 92.5567896,502.873911 C93.3276442,503.470588 94.3058183,503.832512 95.3682808,503.832512 C97.8393566,503.832512 99.8666667,501.892168 99.8666667,499.527094 C99.8666667,497.162019 97.8393566,495.221675 95.3682808,495.221675 C94.3129594,495.221675 93.3428263,495.578917 92.5743333,496.163485 C91.7995426,495.563417 90.8091105,495.204884 89.7452984,495.204884 Z M89.7452984,497.374384 C91.0007979,497.374384 91.9944914,498.325451 91.9944914,499.527094 C91.9944914,500.72879 91.0007979,501.663012 89.7452984,501.663012 C88.4897989,501.663012 87.4961055,500.72879 87.4961055,499.527094 C87.4961055,498.325451 88.4897989,497.374384 89.7452984,497.374384 Z M95.3682808,497.374384 C96.6237803,497.374384 97.6174737,498.325451 97.6174737,499.527094 C97.6174737,500.728736 96.6237803,501.679803 95.3682808,501.679803 C94.8081755,501.679803 94.3025007,501.481808 93.9097916,501.158471 C94.1299876,500.652261 94.2436843,500.105527 94.2436843,499.527094 C94.2436843,498.954042 94.1261077,498.398105 93.9097916,497.89577 C94.3025007,497.577331 94.8081193,497.374384 95.3682808,497.374384 Z" id="icon_cc" fill-rule="nonzero"></path>
    </g>
</svg>
