<?xml version="1.0" encoding="UTF-8"?>
<svg viewBox="0 0 15 17" version="1.1" xmlns="http://www.w3.org/2000/svg" xmlns:xlink="http://www.w3.org/1999/xlink">
    <!-- Generator: Sketch 48.1 (47250) - http://www.bohemiancoding.com/sketch -->
    <title>noun_746111_cc</title>
    <desc>Created with Sketch.</desc>
    <defs></defs>
    <g id="Page-1" stroke="none" stroke-width="1" fill="none" fill-rule="evenodd">
        <g id="noun_746111_cc" fill="#000000" fill-rule="nonzero">
            <path d="M7.3,8.6 C3.4,8.6 0.3,11.7 0.3,15.6 L0.3,17 L14.3,17 L14.3,15.6 C14.3,11.8 11.1,8.6 7.3,8.6 Z M13.3,16 L1.3,16 L1.3,15.6 C1.3,12.3 4,9.6 7.3,9.6 C10.6,9.6 13.3,12.3 13.3,15.6 L13.3,16 Z" id="Shape"></path>
            <path d="M7.3,1.6 C8.7,1.6 9.8,2.7 9.8,4.1 C9.8,5.5 8.7,6.6 7.3,6.6 C5.9,6.6 4.8,5.5 4.8,4.1 C4.8,2.7 5.9,1.6 7.3,1.6 Z M7.3,0.6 C5.4,0.6 3.8,2.2 3.8,4.1 C3.8,6 5.4,7.6 7.3,7.6 C9.2,7.6 10.8,6 10.8,4.1 C10.8,2.2 9.2,0.6 7.3,0.6 Z" id="Shape"></path>
        </g>
    </g>
</svg>
