<?xml version="1.0" encoding="UTF-8"?>
<svg viewBox="0 0 327 326" version="1.1" xmlns="http://www.w3.org/2000/svg" xmlns:xlink="http://www.w3.org/1999/xlink">
    <!-- Generator: Sketch 48.1 (47250) - http://www.bohemiancoding.com/sketch -->
    <title>emptyState</title>
    <desc>Created with Sketch.</desc>
    <defs></defs>
    <g id="Tutor_01" stroke="none" stroke-width="1" fill="none" fill-rule="evenodd" transform="translate(-24.000000, -292.000000)">
        <g id="emptyState" transform="translate(24.000000, 292.000000)">
            <rect id="Rectangle" fill-opacity="0.0299999993" fill="#413E60" x="0" y="114" width="327" height="98" rx="4"></rect>
            <rect id="Rectangle" fill-opacity="0.0299999993" fill="#413E60" x="0" y="228" width="327" height="98" rx="4"></rect>
            <rect id="Rectangle" fill-opacity="0.0299999993" fill="#413E60" x="0" y="0" width="327" height="98" rx="4"></rect>
            <rect id="Rectangle-7" fill-opacity="0.100000001" fill="#413E60" x="24" y="137" width="159" height="12" rx="6"></rect>
            <rect id="Rectangle-7" fill-opacity="0.100000001" fill="#413E60" x="24" y="251" width="159" height="12" rx="6"></rect>
            <rect id="Rectangle-7" fill-opacity="0.100000001" fill="#413E60" x="24" y="23" width="159" height="12" rx="6"></rect>
            <path d="M37,165 C30.372583,165 25,170.372583 25,177 L25,179 C25,185.627417 30.372583,191 37,191 L101,191 C107.627417,191 113,185.627417 113,179 L113,177 C113,170.372583 107.627417,165 101,165 L37,165 Z M37,164 L101,164 C108.179702,164 114,169.820298 114,177 L114,179 C114,186.179702 108.179702,192 101,192 L37,192 C29.8202983,192 24,186.179702 24,179 L24,177 C24,169.820298 29.8202983,164 37,164 Z" id="Rectangle-7-Copy" fill="#008489" fill-rule="nonzero"></path>
            <path d="M64.018,184.89 L64.018,183.14 C61.596,182.972 60.56,181.642 60.448,179.878 L62.52,179.878 C62.618,180.69 62.912,181.348 64.018,181.516 L64.018,178.814 C61.792,178.464 60.728,177.652 60.728,175.804 C60.728,174.194 62.016,173.004 64.018,172.864 L64.018,171.618 L65.012,171.618 L65.012,172.878 C66.916,173.046 68.064,173.998 68.232,175.804 L66.23,175.804 C66.104,175.076 65.754,174.628 65.012,174.488 L65.012,176.994 C67.112,177.316 68.4,178.016 68.4,179.962 C68.4,181.642 67.224,182.986 65.012,183.14 L65.012,184.89 L64.018,184.89 Z M66.328,180.2 C66.328,179.528 66.048,179.192 65.012,178.968 L65.012,181.516 C65.824,181.376 66.328,180.886 66.328,180.2 Z M62.744,175.622 C62.744,176.266 62.982,176.616 64.018,176.826 L64.018,174.46 C63.192,174.572 62.744,175.034 62.744,175.622 Z M72.438,183 L72.438,175.23 L70.408,176.56 L70.408,174.628 L72.718,172.99 L74.706,172.99 L74.706,183 L72.438,183 Z M82.034,181.376 C83.448,181.376 84.092,180.298 84.092,178.198 L84.092,177.75 C84.092,175.734 83.392,174.6 82.006,174.6 C80.606,174.6 79.892,175.678 79.892,177.75 L79.892,178.226 C79.892,180.326 80.634,181.376 82.034,181.376 Z M81.978,183.154 C79.318,183.154 77.624,181.306 77.624,178.24 L77.624,177.764 C77.624,174.684 79.416,172.85 81.992,172.85 C84.568,172.85 86.346,174.614 86.346,177.722 L86.346,178.184 C86.346,181.25 84.68,183.154 81.978,183.154 Z M93.016,181.376 C94.43,181.376 95.074,180.298 95.074,178.198 L95.074,177.75 C95.074,175.734 94.374,174.6 92.988,174.6 C91.588,174.6 90.874,175.678 90.874,177.75 L90.874,178.226 C90.874,180.326 91.616,181.376 93.016,181.376 Z M92.96,183.154 C90.3,183.154 88.606,181.306 88.606,178.24 L88.606,177.764 C88.606,174.684 90.398,172.85 92.974,172.85 C95.55,172.85 97.328,174.614 97.328,177.722 L97.328,178.184 C97.328,181.25 95.662,183.154 92.96,183.154 Z" id="$225" fill="#008489"></path>
            <path d="M49.6160462,173.366683 C49.9089394,173.07379 50.3838132,173.07379 50.6767064,173.366683 C50.9695996,173.659577 50.9695996,174.13445 50.6767064,174.427343 L42.7344618,182.369588 C42.4415686,182.662481 41.9666949,182.662481 41.6738017,182.369588 L38.0754649,178.771251 C37.7825717,178.478358 37.7825717,178.003484 38.0754649,177.710591 C38.3683582,177.417698 38.8432319,177.417698 39.1361251,177.710591 L42.2041317,180.778598 L49.6160462,173.366683 Z" id="icon_check" fill="#008489" fill-rule="nonzero"></path>
            <path d="M37,279 C30.372583,279 25,284.372583 25,291 L25,293 C25,299.627417 30.372583,305 37,305 L91,305 C97.627417,305 103,299.627417 103,293 L103,291 C103,284.372583 97.627417,279 91,279 L37,279 Z M37,278 L91,278 C98.1797017,278 104,283.820298 104,291 L104,293 C104,300.179702 98.1797017,306 91,306 L37,306 C29.8202983,306 24,300.179702 24,293 L24,291 C24,283.820298 29.8202983,278 37,278 Z" id="Rectangle-7-Copy" fill="#008489" fill-rule="nonzero"></path>
            <path d="M64.018,298.89 L64.018,297.14 C61.596,296.972 60.56,295.642 60.448,293.878 L62.52,293.878 C62.618,294.69 62.912,295.348 64.018,295.516 L64.018,292.814 C61.792,292.464 60.728,291.652 60.728,289.804 C60.728,288.194 62.016,287.004 64.018,286.864 L64.018,285.618 L65.012,285.618 L65.012,286.878 C66.916,287.046 68.064,287.998 68.232,289.804 L66.23,289.804 C66.104,289.076 65.754,288.628 65.012,288.488 L65.012,290.994 C67.112,291.316 68.4,292.016 68.4,293.962 C68.4,295.642 67.224,296.986 65.012,297.14 L65.012,298.89 L64.018,298.89 Z M66.328,294.2 C66.328,293.528 66.048,293.192 65.012,292.968 L65.012,295.516 C65.824,295.376 66.328,294.886 66.328,294.2 Z M62.744,289.622 C62.744,290.266 62.982,290.616 64.018,290.826 L64.018,288.46 C63.192,288.572 62.744,289.034 62.744,289.622 Z M71.556,297 L74.608,288.824 L70.198,288.824 L70.198,286.99 L77.45,286.99 L77.45,287.242 L73.866,297 L71.556,297 Z M82.72,297.154 C80.256,297.154 79.108,295.81 79.01,294.018 L81.096,294.018 C81.222,294.858 81.558,295.418 82.706,295.418 C83.728,295.418 84.274,294.704 84.274,293.64 C84.274,292.562 83.658,291.89 82.65,291.89 C81.712,291.89 81.138,292.226 80.732,292.688 L79.472,292.688 L79.612,286.99 L85.954,286.99 L85.954,288.712 L81.306,288.712 L81.264,291.218 C81.656,290.742 82.356,290.294 83.49,290.294 C85.31,290.294 86.556,291.54 86.556,293.668 C86.556,295.796 85.03,297.154 82.72,297.154 Z" id="$225" fill="#008489"></path>
            <path d="M49.6160462,287.366683 C49.9089394,287.07379 50.3838132,287.07379 50.6767064,287.366683 C50.9695996,287.659577 50.9695996,288.13445 50.6767064,288.427343 L42.7344618,296.369588 C42.4415686,296.662481 41.9666949,296.662481 41.6738017,296.369588 L38.0754649,292.771251 C37.7825717,292.478358 37.7825717,292.003484 38.0754649,291.710591 C38.3683582,291.417698 38.8432319,291.417698 39.1361251,291.710591 L42.2041317,294.778598 L49.6160462,287.366683 Z" id="icon_check" fill="#008489" fill-rule="nonzero"></path>
            <path d="M37,51 C30.372583,51 25,56.372583 25,63 L25,65 C25,71.627417 30.372583,77 37,77 L101,77 C107.627417,77 113,71.627417 113,65 L113,63 C113,56.372583 107.627417,51 101,51 L37,51 Z M37,50 L101,50 C108.179702,50 114,55.8202983 114,63 L114,65 C114,72.1797017 108.179702,78 101,78 L37,78 C29.8202983,78 24,72.1797017 24,65 L24,63 C24,55.8202983 29.8202983,50 37,50 Z" id="Rectangle-7-Copy" fill="#FEAF38" fill-rule="nonzero"></path>
            <path d="M64.018,70.89 L64.018,69.14 C61.596,68.972 60.56,67.642 60.448,65.878 L62.52,65.878 C62.618,66.69 62.912,67.348 64.018,67.516 L64.018,64.814 C61.792,64.464 60.728,63.652 60.728,61.804 C60.728,60.194 62.016,59.004 64.018,58.864 L64.018,57.618 L65.012,57.618 L65.012,58.878 C66.916,59.046 68.064,59.998 68.232,61.804 L66.23,61.804 C66.104,61.076 65.754,60.628 65.012,60.488 L65.012,62.994 C67.112,63.316 68.4,64.016 68.4,65.962 C68.4,67.642 67.224,68.986 65.012,69.14 L65.012,70.89 L64.018,70.89 Z M66.328,66.2 C66.328,65.528 66.048,65.192 65.012,64.968 L65.012,67.516 C65.824,67.376 66.328,66.886 66.328,66.2 Z M62.744,61.622 C62.744,62.266 62.982,62.616 64.018,62.826 L64.018,60.46 C63.192,60.572 62.744,61.034 62.744,61.622 Z M75.238,69 L75.238,67.012 L70.324,67.012 L70.324,66.186 L74.65,58.99 L77.436,58.99 L77.436,65.388 L78.752,65.388 L78.752,67.012 L77.436,67.012 L77.436,69 L75.238,69 Z M72.592,65.388 L75.28,65.388 L75.28,60.698 L72.592,65.388 Z M85.114,67.376 C86.528,67.376 87.172,66.298 87.172,64.198 L87.172,63.75 C87.172,61.734 86.472,60.6 85.086,60.6 C83.686,60.6 82.972,61.678 82.972,63.75 L82.972,64.226 C82.972,66.326 83.714,67.376 85.114,67.376 Z M85.058,69.154 C82.398,69.154 80.704,67.306 80.704,64.24 L80.704,63.764 C80.704,60.684 82.496,58.85 85.072,58.85 C87.648,58.85 89.426,60.614 89.426,63.722 L89.426,64.184 C89.426,67.25 87.76,69.154 85.058,69.154 Z" id="$1,200" fill="#EC8E00"></path>
            <rect id="Rectangle-Copy" fill="#EC8E00" x="38" y="63" width="2" height="2" rx="1"></rect>
            <rect id="Rectangle-Copy-2" fill="#EC8E00" x="42" y="63" width="2" height="2" rx="1"></rect>
            <rect id="Rectangle-Copy-8" fill="#EC8E00" x="46" y="63" width="2" height="2" rx="1"></rect>
        </g>
    </g>
</svg>