<?xml version="1.0" encoding="UTF-8"?>
<svg viewBox="0 0 48 48" version="1.1" xmlns="http://www.w3.org/2000/svg" xmlns:xlink="http://www.w3.org/1999/xlink">
    <!-- Generator: Sketch 48.1 (47250) - http://www.bohemiancoding.com/sketch -->
    <title>icon_receipt</title>
    <desc>Created with Sketch.</desc>
    <defs></defs>
    <g id="Parent_02" stroke="none" stroke-width="1" fill-rule="evenodd" fill="currentColor" transform="translate(-38.000000, -617.000000)">
        <g id="icon_receipt" transform="translate(42.000000, 617.000000)" fill="currentColor">
            <path d="M17.0411897,40.8428634 L12.9991691,44.3962022 C12.6106993,44.7442813 11.9527871,44.7442813 11.5643174,44.3962022 L7.40992119,40.7533187 L2.23778136,44.4621363 C1.92289881,44.6915868 1.46990212,44.7338901 1.11993178,44.5609846 C0.793260763,44.429011 0.575649153,44.0503912 0.535980508,43.5719736 L0.535980508,1.4236589 C0.431560678,0.835843516 0.933654661,0.215905055 1.53703983,0.187421538 C1.78631695,0.174973187 2.03919254,0.252300659 2.23778136,0.401680879 L7.40992119,4.11044571 L11.5643174,0.467614945 C11.9527871,0.119535824 12.6106993,0.119535824 12.9991691,0.467614945 L17.086828,4.06102154 L21.1744869,0.467614945 C21.5629566,0.119535824 22.2208688,0.119535824 22.6093386,0.467614945 L26.7637347,4.11044571 L31.9358746,0.401680879 C32.2706875,0.151342418 32.7585585,0.125443516 33.1204614,0.335746813 C33.4823644,0.546102857 33.6964576,0.979949011 33.6376754,1.39069187 C33.6376754,9.48932567 33.637694,16.7231044 33.6377011,24.0217161 C33.3959578,24.0073073 33.152302,24 32.9069395,24 L32.0930605,24 C31.8949163,24 31.6978851,24.0047654 31.5020752,24.0141879 L31.5020822,3.31923692 L27.3310017,6.31928967 C26.9382661,6.60618198 26.3417789,6.57706549 25.9795716,6.2533556 L21.8919127,2.65989626 L17.8042538,6.2533556 C17.4157841,6.60138198 16.7578719,6.60138198 16.3694021,6.2533556 L12.2817432,2.65989626 L8.19408432,6.2533556 C7.83187703,6.57706549 7.23538983,6.60618198 6.84265424,6.31928967 L2.67157373,3.31923692 L2.67157373,41.5445275 L6.84265424,38.5445275 C7.0028878,38.4299077 7.19591339,38.3604396 7.39323686,38.3467253 C7.68148856,38.322567 7.97814915,38.4202549 8.19408432,38.6104615 L12.2817432,42.2038681 L16.3694021,38.6104615 C16.6991498,38.3149989 17.2230377,38.270336 17.6114788,38.476473 C17.7688689,38.5298834 17.9167295,38.6193253 18.042203,38.7447988 L21.9733935,42.2329165 C22.4103326,42.6698556 22.4103326,43.3782738 21.9733935,43.8152128 C21.5364544,44.2521519 20.8280362,44.2521519 20.3910972,43.8152128 L17.0411897,40.8428634 Z M32.5,26 C38.2989899,26 43,30.7010101 43,36.5 C43,42.2989899 38.2989899,47 32.5,47 C26.7010101,47 22,42.2989899 22,36.5 C22,30.7010101 26.7010101,26 32.5,26 Z M32.5,28 C27.8055796,28 24,31.8055796 24,36.5 C24,41.1944204 27.8055796,45 32.5,45 C37.1944204,45 41,41.1944204 41,36.5 C41,31.8055796 37.1944204,28 32.5,28 Z M34.6450789,34.2928932 C35.0356032,33.9023689 35.6687681,33.9023689 36.0592924,34.2928932 C36.4498167,34.6834175 36.4498167,35.3165825 36.0592924,35.7071068 L31.9068681,39.8595311 C31.5163438,40.2500554 30.8831788,40.2500554 30.4926546,39.8595311 L28.2928932,37.6597698 C27.9023689,37.2692455 27.9023689,36.6360805 28.2928932,36.2455562 C28.6834175,35.8550319 29.3165825,35.8550319 29.7071068,36.2455562 L31.1997613,37.7382108 L34.6450789,34.2928932 Z M16.8864378,13.186121 C17.47568,13.186121 17.9542344,13.6584726 17.9542344,14.2410661 L17.9542344,14.9993078 C19.3515157,15.394332 20.3707809,16.4535496 20.9073594,17.5213122 C21.2182965,18.0180331 21.0163761,18.759554 20.4902514,19.0212858 C19.964132,19.2830177 19.2349283,19.0064111 19.022031,18.4608463 C18.6386387,17.6979628 17.7936218,16.9443628 16.7863319,16.9443628 C15.4880994,16.9443628 14.667423,17.6435276 14.667423,19.0542529 C14.6765526,20.1847847 15.9830445,20.7446441 17.2368086,21.2630335 C17.9419334,21.5955522 18.7937842,21.8555962 19.589298,22.4333368 C20.3848118,23.0110775 21.0241497,24.061328 21.0241497,25.3839126 C21.0241497,27.3787083 19.6974498,28.9456181 17.9542344,29.4388577 L17.9542344,30.0652313 C17.9542344,30.6478775 17.47568,31.1201764 16.8864378,31.1201764 C16.2972009,31.1201764 15.8186412,30.6478775 15.8186412,30.0652313 L15.8186412,29.4882819 C14.3153544,29.1398863 13.2279157,28.0199566 12.6653043,26.9003962 C12.354362,26.4036225 12.5729666,25.6621544 13.0990967,25.4003698 C13.6252161,25.1386379 14.3377354,25.4152445 14.5506327,25.9608621 C14.9340251,26.7236929 15.779042,27.4938028 16.7863319,27.4938028 C18.0845323,27.4938028 18.9052408,26.7945852 18.9052408,25.3839126 C18.895999,24.2387698 17.5962289,23.6780137 16.3358552,23.1586116 C15.6307464,22.8260929 14.7955532,22.5661017 14.0000501,21.9883083 C13.204547,21.4105676 12.5485141,20.3768375 12.5485141,19.0542529 C12.5485141,16.9818133 13.9750263,15.3741825 15.8186412,14.9498836 L15.8186412,14.2410661 C15.8186412,13.6584726 16.2972009,13.186121 16.8864378,13.186121 Z" id="Combined-Shape"></path>
        </g>
    </g>
</svg>
