<?xml version="1.0" encoding="UTF-8"?>
<svg viewBox="0 0 24 26" version="1.1" xmlns="http://www.w3.org/2000/svg" xmlns:xlink="http://www.w3.org/1999/xlink">
    <!-- Generator: Sketch 48.1 (47250) - http://www.bohemiancoding.com/sketch -->
    <title>icon_remember</title>
    <desc>Created with Sketch.</desc>
    <defs></defs>
    <g id="Register_00" stroke="none" stroke-width="1" fill="currentColor" fill-rule="evenodd" transform="translate(-26.000000, -628.000000)">
        <g id="icon_remember" transform="translate(26.000000, 628.000000)" fill="currentColor" fill-rule="nonzero">
            <path d="M19.3978784,7.03248 C19.1163768,6.90612 18.8346152,6.79432 18.5541533,6.69474 C18.8694455,6.60582 19.1868172,6.5052 19.5026292,6.38508 C21.873689,5.48288 23.9687056,3.76558 23.3851681,2.22976 C23.2169949,1.78698 22.6766054,1.04416 20.9462672,1.04416 C19.9889538,1.04416 18.8444925,1.27894 17.7244644,1.70482 C16.5703857,2.14318 15.5761626,2.7287 14.8701992,3.36076 L14.8701992,2.38238 C14.8701992,1.06886 13.8029364,0 12.4895221,0 C11.175588,0 10.1065057,1.06886 10.1065057,2.38238 L10.1065057,7.20928 C9.80576944,7.07122 9.47202238,6.99244 9.12008038,6.99244 C8.46298336,6.99244 7.86722926,7.25998 7.43574941,7.6921 C7.00426956,7.25998 6.40851546,6.99244 5.75141844,6.99244 C4.71820615,6.99244 3.83913094,7.65518 3.51006257,8.57766 C3.17189674,8.38968 2.7838248,8.28152 2.37105974,8.28152 C1.07168157,8.28152 0.0150758019,9.33868 0.0150758019,10.63816 L0.0150758019,11.39086 L0,18.56322 C0,22.66394 3.33539121,26 7.43574941,26 C11.5355878,26 14.8704591,22.66394 14.8704591,18.56322 L14.8704591,16.28822 L14.8704591,15.27344 L14.8704591,13.11466 L14.8704591,11.39086 L14.8704591,10.0334 C15.5444514,10.63452 16.4183281,11.18182 17.3475693,11.5999 C18.580406,12.15344 19.82286,12.45816 20.8467149,12.45816 C22.33662,12.45816 22.8546558,11.80036 23.0295871,11.40828 C23.216735,10.99384 23.3620345,10.1231 22.2443457,8.94816 C21.5638552,8.2316 20.5527368,7.55118 19.3978784,7.03248 Z M15.1930293,5.1415 C15.4485381,4.5721 16.504884,3.66132 18.2198864,3.00976 C19.1868172,2.64212 20.1545277,2.4401 20.9462672,2.4401 C21.7138335,2.4401 22.0470607,2.6364 22.0808513,2.72532 C22.182483,2.99182 21.2823536,4.21486 19.0072072,5.08066 C18.0410562,5.44752 17.0733457,5.64954 16.2813462,5.64954 C15.5132601,5.64954 15.1802928,5.45324 15.1457225,5.3625 C15.1348055,5.3339 15.140264,5.2585 15.1930293,5.1415 Z M13.4751676,6.9927 L11.502317,6.9927 L11.502317,6.05098 L13.4751676,6.05098 L13.4751676,6.9927 Z M12.4895221,1.39568 C13.0330308,1.39568 13.4751676,1.8382 13.4751676,2.38238 L13.4751676,4.65504 L11.502317,4.65504 L11.502317,2.38238 C11.502317,1.8382 11.9449738,1.39568 12.4895221,1.39568 Z M9.12008038,8.38838 C9.66384896,8.38838 10.1065057,8.83142 10.1065057,9.37612 L10.1065057,11.21874 C9.3677914,11.08926 8.82428275,11.06456 8.77099759,11.06274 C8.60516377,11.06274 8.38214587,11.06352 8.13365507,11.08406 L8.13365507,9.37612 C8.13365507,8.83142 8.5763118,8.38838 9.12008038,8.38838 Z M4.76499312,9.37612 C4.76499312,8.83142 5.20713,8.38838 5.75115851,8.38838 C6.29492709,8.38838 6.73810368,8.83142 6.73810368,9.37612 L6.73810368,11.48758 C6.20395242,11.817 5.78936787,12.40304 5.78936787,13.44538 C5.78936787,14.24982 6.19381524,14.73316 6.73810368,15.05036 L6.73810368,16.28848 C6.73810368,16.8324 6.29492709,17.27518 5.75115851,17.27518 C5.20713,17.27518 4.76499312,16.8324 4.76499312,16.28848 L4.76499312,9.37612 Z M1.41062719,10.63842 C1.41062719,10.10854 1.84106733,9.67746 2.37105974,9.67746 C2.89975252,9.67746 3.32993273,10.10854 3.32993273,10.63842 L3.32993273,15.08234 C3.32993273,15.61118 2.89975252,16.04174 2.37105974,16.04174 C1.84106733,16.04174 1.41062719,15.61118 1.41062719,15.08234 L1.41062719,10.63842 Z M13.4751676,18.56322 C13.4751676,21.89434 10.766202,24.60354 7.43574941,24.60354 C4.10503689,24.60354 1.39581132,21.89408 1.39581132,18.56322 L1.39581132,17.22344 C1.69368837,17.35994 2.02275673,17.43742 2.37105974,17.43742 C2.79058292,17.43742 3.18489312,17.32536 3.52643801,17.13218 C3.86824283,18.0297 4.73536137,18.6706 5.75141844,18.6706 C7.06509262,18.6706 8.13391499,17.60174 8.13391499,16.28822 L8.13391499,15.55268 C8.24230481,15.57868 8.34939499,15.60338 8.45232633,15.62704 C8.99713462,15.75158 9.61498257,15.89328 9.83748061,16.11558 C10.2923539,16.57084 10.2723395,18.2039 10.1163829,19.16408 C10.0545202,19.54472 10.3126283,19.90352 10.6923826,19.96566 C10.730332,19.97164 10.7685413,19.97528 10.805711,19.97528 C11.1415375,19.97528 11.4370752,19.73192 11.4934795,19.39002 C11.577956,18.87522 11.9434142,16.24844 10.8239059,15.12862 C10.3180868,14.62266 9.52816675,14.44118 8.76371962,14.2662 C7.65070955,14.01166 7.18517918,13.84058 7.18517918,13.44538 C7.18517918,12.64302 7.48149667,12.45842 8.74292541,12.45738 C8.79101202,12.45972 13.4756875,12.72102 13.4756875,15.27344 L13.4756875,16.28822 L13.4756875,18.56322 L13.4751676,18.56322 Z M13.4751676,12.5463 C13.0278322,12.20024 12.4531322,11.88252 11.6996021,11.622 C11.6341003,11.59938 11.5675588,11.57806 11.5020571,11.55752 L11.5020571,9.37586 L11.5020571,8.38812 L13.4749077,8.38812 L13.4749077,11.39086 L13.4749077,12.5463 L13.4751676,12.5463 Z M21.7569815,10.83706 C21.7237107,10.91038 21.4580647,11.06274 20.846455,11.06274 C20.0282029,11.06274 18.9604202,10.79442 17.9188902,10.32694 C15.6983286,9.32854 14.8717587,8.05558 14.989246,7.7961 C15.0214771,7.72226 15.287383,7.57016 15.8984728,7.57016 C16.7180246,7.57016 17.7850275,7.83822 18.8265575,8.30596 C19.8054449,8.74562 20.6827006,9.33036 21.2337472,9.91042 C21.7109743,10.41248 21.7933713,10.75646 21.7569815,10.83706 Z"></path>
        </g>
    </g>
</svg>
