<?xml version="1.0" encoding="UTF-8"?>
<svg viewBox="0 0 48 48" version="1.1" xmlns="http://www.w3.org/2000/svg" xmlns:xlink="http://www.w3.org/1999/xlink">
    <!-- Generator: Sketch 48.1 (47250) - http://www.bohemiancoding.com/sketch -->
    <title>icon_repeat</title>
    <desc>Created with Sketch.</desc>
    <defs></defs>
    <g id="Parent_02" stroke="none" stroke-width="1" fill="none" fill-rule="evenodd" transform="translate(-34.000000, -527.000000)">
        <g id="icon_repeat" transform="translate(34.000000, 527.000000)" fill="currentColor">
            <path d="M46.3805714,21.368875 C46.8262857,21.822125 46.8262857,22.552875 46.3805714,23.006125 L41.8091429,27.631125 C41.5851429,27.8554375 41.2925714,27.96875 41,27.96875 C40.7074286,27.96875 40.4148571,27.8554375 40.1931429,27.631125 L35.6217143,23.006125 C35.1737143,22.552875 35.1737143,21.822125 35.6217143,21.368875 C36.0674286,20.9179375 36.7897143,20.9179375 37.2377143,21.368875 L39.8502857,24.0120625 C39.5942857,15.3124375 32.5177143,8.3125 23.8571429,8.3125 C17.9074286,8.3125 12.4857143,11.6216875 9.70171429,16.947375 C9.40685714,17.511625 8.71657143,17.7266875 8.15657143,17.428375 C7.59885714,17.1300625 7.38628571,16.429375 7.68114286,15.865125 C10.8605714,9.7809375 17.0594286,6 23.8571429,6 C28.7417143,6 33.3337143,7.924 36.7874286,11.4181875 C40.1314286,14.801375 42.0194286,19.2621875 42.136,24.02825 L44.7622857,21.368875 C45.2102857,20.9179375 45.9325714,20.9179375 46.3805714,21.368875 Z M39.5577143,31.571625 C40.1154286,31.8699375 40.328,32.570625 40.0331429,33.134875 C36.8537143,39.2190625 30.6548571,43 23.8571429,43 C18.9725714,43 14.3805714,41.076 10.9268571,37.5818125 C7.58285714,34.198625 5.69485714,29.7378125 5.57828571,24.97175 L2.952,27.631125 C2.504,28.0820625 1.78171429,28.0820625 1.33371429,27.631125 C0.888,27.177875 0.888,26.447125 1.33371429,25.993875 L5.90514286,21.368875 C6.35314286,20.9179375 7.07542857,20.9179375 7.52342857,21.368875 L12.0948571,25.993875 C12.5405714,26.447125 12.5405714,27.177875 12.0948571,27.631125 C11.8708571,27.8554375 11.5782857,27.96875 11.2857143,27.96875 C10.9931429,27.96875 10.7005714,27.8554375 10.4765714,27.631125 L7.864,24.9879375 C8.12,33.6875625 15.1965714,40.6875 23.8571429,40.6875 C29.8068571,40.6875 35.2308571,37.3783125 38.0125714,32.052625 C38.3074286,31.488375 38.9977143,31.2733125 39.5577143,31.571625 Z"></path>
        </g>
    </g>
</svg>
