<?xml version="1.0" encoding="UTF-8"?>
<svg viewBox="0 0 28 28" version="1.1" xmlns="http://www.w3.org/2000/svg" xmlns:xlink="http://www.w3.org/1999/xlink">
    <!-- Generator: Sketch 48.1 (47250) - http://www.bohemiancoding.com/sketch -->
    <title>icon_user</title>
    <desc>Created with Sketch.</desc>
    <defs></defs>
    <g id="Page-1" stroke="currentColor" stroke-width="1" fill="none" fill-rule="evenodd">
        <g id="icon_user" fill="currentColor">
            <path d="M14,1 C6.82029825,1 1,6.82029825 1,14 C1,21.1797017 6.82029825,27 14,27 C21.1797017,27 27,21.1797017 27,14 C27,6.82029825 21.1797017,1 14,1 Z M14,3.94430453e-31 C21.7319865,-3.19669972e-15 28,6.2680135 28,14 C28,21.7319865 21.7319865,28 14,28 C6.2680135,28 -8.29461588e-16,21.7319865 -1.77635684e-15,14 C-2.72325209e-15,6.2680135 6.2680135,-3.56013962e-16 14,3.94430453e-31 Z" id="Rectangle-2" fill-rule="nonzero"></path>
            <path d="M4.45109739,22.6156645 C4.33198922,22.8647987 4.03346978,22.9702057 3.78433558,22.8510975 C3.53520137,22.7319893 3.42979444,22.4334699 3.54890261,22.1843357 C5.48963222,18.1249825 9.47568559,15.5 13.9166865,15.5 C18.6165189,15.5 22.6435514,18.0444763 24.4582136,22.1998994 C24.5687262,22.4529638 24.4531651,22.7477012 24.2001007,22.8582137 C23.9470363,22.9687263 23.6522989,22.8531652 23.5417864,22.6001008 C21.8888004,18.8149027 18.2251042,16.5 13.9166865,16.5 C9.86883685,16.5 6.22893451,18.8970276 4.45109739,22.6156645 Z" id="Rectangle-2" fill-rule="nonzero"></path>
            <path d="M11.2685201,12.9762348 C11.1946358,13.1245344 11.0145202,13.1848599 10.8662206,13.1109755 C10.717921,13.0370912 10.6575955,12.8569756 10.7314799,12.708676 C11.3395322,11.488202 12.5867965,10.7 13.9750059,10.7 C15.4408347,10.7 16.7028437,11.4651939 17.2730552,12.7181943 C17.3416828,12.8689985 17.2750654,13.0468831 17.1242611,13.1155106 C16.9734569,13.1841382 16.7955723,13.1175208 16.7269448,12.9667165 C16.2568618,11.9337419 15.2116522,11.3 13.9750059,11.3 C12.8165602,11.3 11.7760378,11.9575526 11.2685201,12.9762348 Z" id="Rectangle-2" fill-rule="nonzero" transform="translate(14.000004, 11.921264) rotate(-180.000000) translate(-14.000004, -11.921264) "></path>
            <path d="M14,5 C11.2385763,5 9,7.23857625 9,10 C9,12.7614237 11.2385763,15 14,15 C16.7614237,15 19,12.7614237 19,10 C19,7.23857625 16.7614237,5 14,5 Z M14,4 C17.3137085,4 20,6.6862915 20,10 C20,13.3137085 17.3137085,16 14,16 C10.6862915,16 8,13.3137085 8,10 C8,6.6862915 10.6862915,4 14,4 Z" id="Rectangle-2" fill-rule="nonzero"></path>
            <circle id="Oval-2" cx="12.5" cy="9" r="1"></circle>
            <circle id="Oval-2" cx="15.5" cy="9" r="1"></circle>
        </g>
    </g>
</svg>
