<?xml version="1.0" encoding="UTF-8"?>
<svg viewBox="0 0 48 48" version="1.1" xmlns="http://www.w3.org/2000/svg" xmlns:xlink="http://www.w3.org/1999/xlink">
    <!-- Generator: Sketch 48.1 (47250) - http://www.bohemiancoding.com/sketch -->
    <title>icon_wallet</title>
    <desc>Created with Sketch.</desc>
    <defs></defs>
    <g id="Register_00" stroke="none" stroke-width="1" fill="currentColor" fill-rule="evenodd" transform="translate(-59.000000, -554.000000)">
        <path d="M103.873684,573.788266 L103.873684,582.242812 C103.873684,582.989117 103.372046,583.61823 102.674474,583.849863 L102.674474,592.139218 C102.674474,593.110343 101.87176,593.9 100.892018,593.9 L64.7824561,593.9 C63.802714,593.9 63,593.110343 63,592.139218 L63,563.760782 C63,562.789657 63.802714,562 64.7824561,562 L100.892018,562 C101.87176,562 102.674474,562.789657 102.674474,563.760782 L102.674474,572.120236 C103.368261,572.365793 103.873684,573.03829 103.873684,573.788266 Z M64.7824561,592.204757 L100.892018,592.204757 L100.892018,583.488055 L90.2323684,583.488055 C87.1677193,583.488055 84.6360526,580.997569 84.6360526,577.98277 C84.6360526,574.96797 87.1677193,572.477484 90.2323684,572.477484 L100.892018,572.477484 L100.892018,563.760782 L64.7824561,563.760782 L64.7824561,592.204757 Z M102.091228,582.177273 L102.091228,573.788266 L90.2323684,573.788266 C87.9005702,573.788266 85.9685088,575.688901 85.9685088,577.98277 C85.9685088,580.276638 87.9005702,582.177273 90.2323684,582.177273 L102.091228,582.177273 Z M90.4322368,575.368605 C91.9214356,575.368605 93.1314474,576.558934 93.1314474,578.048309 C93.1314474,579.537683 91.9214356,580.728013 90.4322368,580.728013 C88.9119152,580.728013 87.7996491,579.451477 87.7996491,577.98277 C87.7996491,576.493395 88.943038,575.368605 90.4322368,575.368605 Z M90.4322368,576.868605 C89.7660088,576.868605 89.2996491,577.327378 89.2996491,577.98277 C89.2996491,578.638161 89.7660088,579.228013 90.4322368,579.228013 C91.0984649,579.228013 91.6314474,578.7037 91.6314474,578.048309 C91.6314474,577.392918 91.0984649,576.868605 90.4322368,576.868605 Z" id="icon_wallet"></path>
    </g>
</svg>
