<?xml version="1.0" encoding="UTF-8"?>
<svg width="46px" height="32px" viewBox="0 0 46 32" version="1.1" xmlns="http://www.w3.org/2000/svg" xmlns:xlink="http://www.w3.org/1999/xlink">
    <!-- Generator: Sketch 48.1 (47250) - http://www.bohemiancoding.com/sketch -->
    <title>icon_toggle_off</title>
    <desc>Created with Sketch.</desc>
    <defs></defs>
    <g id="Tutor_05" stroke="none" stroke-width="1" fill="currentColor" fill-rule="evenodd" transform="translate(-24.000000, -468.000000)">
        <path d="M40,468 L54,468 C62.836556,468 70,475.163444 70,484 C70,492.836556 62.836556,500 54,500 L40,500 C31.163444,500 24,492.836556 24,484 C24,475.163444 31.163444,468 40,468 Z M40,499 C48.2842712,499 55,492.284271 55,484 C55,475.715729 48.2842712,469 40,469 C31.7157288,469 25,475.715729 25,484 C25,492.284271 31.7157288,499 40,499 Z" id="icon_toggle_off" fill-opacity="0.25" fill="#413E60"></path>
        <path d="M40,482.93934 L42.7196699,480.21967 C43.0125631,479.926777 43.4874369,479.926777 43.7803301,480.21967 C44.0732233,480.512563 44.0732233,480.987437 43.7803301,481.28033 L41.0606602,484 L43.7803301,486.71967 C44.0732233,487.012563 44.0732233,487.487437 43.7803301,487.78033 C43.4874369,488.073223 43.0125631,488.073223 42.7196699,487.78033 L40,485.06066 L37.2803301,487.78033 C36.9874369,488.073223 36.5125631,488.073223 36.2196699,487.78033 C35.9267767,487.487437 35.9267767,487.012563 36.2196699,486.71967 L38.9393398,484 L36.2196699,481.28033 C35.9267767,480.987437 35.9267767,480.512563 36.2196699,480.21967 C36.5125631,479.926777 36.9874369,479.926777 37.2803301,480.21967 L40,482.93934 Z" id="icon_toggle_off" fill="#413E60" fill-rule="nonzero"></path>
    </g>
</svg>