<?xml version="1.0" encoding="UTF-8"?>
<svg width="46px" height="32px" viewBox="0 0 46 32" version="1.1" xmlns="http://www.w3.org/2000/svg" xmlns:xlink="http://www.w3.org/1999/xlink">
    <!-- Generator: Sketch 48.1 (47250) - http://www.bohemiancoding.com/sketch -->
    <title>icon_toggle_on</title>
    <desc>Created with Sketch.</desc>
    <defs></defs>
    <g id="Tutor_04" stroke="none" stroke-width="1" fill="currentColor" fill-rule="evenodd" transform="translate(-24.000000, -468.000000)">
        <g id="toggle_on" transform="translate(24.000000, 468.000000)" fill="#EA4900">
            <g id="icon_toggle_on">
                <path d="M16,0 L30,0 C38.836556,-1.623249e-15 46,7.163444 46,16 C46,24.836556 38.836556,32 30,32 L16,32 C7.163444,32 1.082166e-15,24.836556 0,16 C-1.082166e-15,7.163444 7.163444,1.623249e-15 16,0 Z M30,31 C38.2842712,31 45,24.2842712 45,16 C45,7.71572875 38.2842712,1 30,1 C21.7157288,1 15,7.71572875 15,16 C15,24.2842712 21.7157288,31 30,31 Z M34.4547401,13.4850324 C34.7391489,13.1838936 35.2138289,13.1703314 35.5149676,13.4547401 C35.8161064,13.7391489 35.8296686,14.2138289 35.5452599,14.5149676 L29.8785932,20.5149676 C29.5872727,20.8234246 29.0983003,20.8290192 28.7999986,20.5273083 L25.4666653,17.1558798 C25.1754409,16.8613271 25.178139,16.3864611 25.4726917,16.0952367 C25.7672443,15.8040124 26.2421104,15.8067105 26.5333347,16.1012631 L29.3209854,18.9207727 L34.4547401,13.4850324 Z"></path>
            </g>
        </g>
    </g>
</svg>